<svg width="194" height="73" viewBox="0 0 194 73" fill="none" xmlns="http://www.w3.org/2000/svg">
<path d="M8.296 72.168C7.928 72.168 7.648 72.072 7.456 71.88C7.264 71.672 7.168 71.384 7.168 71.016V56.976H1.912C1.608 56.976 1.368 56.896 1.192 56.736C1.016 56.56 0.928 56.32 0.928 56.016C0.928 55.712 1.016 55.48 1.192 55.32C1.368 55.16 1.608 55.08 1.912 55.08H14.656C14.976 55.08 15.216 55.16 15.376 55.32C15.552 55.48 15.64 55.712 15.64 56.016C15.64 56.32 15.552 56.56 15.376 56.736C15.216 56.896 14.976 56.976 14.656 56.976H9.4V71.016C9.4 71.384 9.304 71.672 9.112 71.88C8.936 72.072 8.664 72.168 8.296 72.168ZM19.4866 72.168C19.1986 72.168 18.9666 72.104 18.7906 71.976C18.6306 71.848 18.5346 71.672 18.5026 71.448C18.4706 71.224 18.5186 70.976 18.6466 70.704L25.1986 55.872C25.3426 55.536 25.5266 55.296 25.7506 55.152C25.9746 54.992 26.2226 54.912 26.4946 54.912C26.7666 54.912 27.0066 54.992 27.2146 55.152C27.4386 55.296 27.6306 55.536 27.7906 55.872L34.3426 70.704C34.4706 70.976 34.5186 71.232 34.4866 71.472C34.4706 71.696 34.3826 71.872 34.2226 72C34.0626 72.112 33.8386 72.168 33.5506 72.168C33.2306 72.168 32.9746 72.088 32.7826 71.928C32.5906 71.752 32.4226 71.504 32.2786 71.184L30.5746 67.2L31.6066 67.776H21.3346L22.3666 67.2L20.6626 71.184C20.5186 71.536 20.3586 71.792 20.1826 71.952C20.0066 72.096 19.7746 72.168 19.4866 72.168ZM26.4466 57.6L22.7026 66.456L22.1266 65.952H30.8146L30.2626 66.456L26.4946 57.6H26.4466ZM42.3441 72.168C42.0241 72.168 41.7761 72.072 41.6001 71.88C41.4241 71.688 41.3361 71.432 41.3361 71.112V55.968C41.3361 55.632 41.4241 55.376 41.6001 55.2C41.7921 55.008 42.0481 54.912 42.3681 54.912C42.6561 54.912 42.8801 54.968 43.0401 55.08C43.2161 55.192 43.3761 55.384 43.5201 55.656L49.9521 67.728H49.2081L55.6401 55.656C55.7841 55.384 55.9361 55.192 56.0961 55.08C56.2561 54.968 56.4801 54.912 56.7681 54.912C57.0881 54.912 57.3361 55.008 57.5121 55.2C57.6881 55.376 57.7761 55.632 57.7761 55.968V71.112C57.7761 71.432 57.6881 71.688 57.5121 71.88C57.3521 72.072 57.1041 72.168 56.7681 72.168C56.4321 72.168 56.1761 72.072 56.0001 71.88C55.8401 71.688 55.7601 71.432 55.7601 71.112V58.176H56.2881L50.5281 68.952C50.4001 69.16 50.2641 69.32 50.1201 69.432C49.9921 69.528 49.8081 69.576 49.5681 69.576C49.3441 69.576 49.1521 69.52 48.9921 69.408C48.8481 69.296 48.7201 69.144 48.6081 68.952L42.7761 58.152H43.3521V71.112C43.3521 71.432 43.2641 71.688 43.0881 71.88C42.9281 72.072 42.6801 72.168 42.3441 72.168ZM66.9537 72.168C66.6017 72.168 66.3297 72.072 66.1377 71.88C65.9457 71.672 65.8497 71.384 65.8497 71.016V56.064C65.8497 55.68 65.9457 55.392 66.1377 55.2C66.3297 55.008 66.6017 54.912 66.9537 54.912C67.3217 54.912 67.6017 55.008 67.7937 55.2C67.9857 55.392 68.0817 55.68 68.0817 56.064V71.016C68.0817 71.384 67.9857 71.672 67.7937 71.88C67.6177 72.072 67.3377 72.168 66.9537 72.168ZM77.1949 72.168C76.8429 72.168 76.5709 72.072 76.3789 71.88C76.1869 71.672 76.0909 71.384 76.0909 71.016V56.208C76.0909 55.84 76.1869 55.56 76.3789 55.368C76.5869 55.176 76.8669 55.08 77.2189 55.08H82.9309C84.7549 55.08 86.1549 55.512 87.1309 56.376C88.1229 57.224 88.6189 58.432 88.6189 60C88.6189 61.024 88.3949 61.904 87.9469 62.64C87.4989 63.36 86.8509 63.912 86.0029 64.296C85.1549 64.68 84.1309 64.872 82.9309 64.872L83.1709 64.536H83.6989C84.3389 64.536 84.8909 64.696 85.3549 65.016C85.8349 65.336 86.2589 65.848 86.6269 66.552L88.8349 70.608C88.9789 70.864 89.0429 71.112 89.0269 71.352C89.0109 71.592 88.9229 71.792 88.7629 71.952C88.6029 72.096 88.3709 72.168 88.0669 72.168C87.7469 72.168 87.4909 72.104 87.2989 71.976C87.1069 71.832 86.9389 71.624 86.7949 71.352L84.2029 66.6C83.8509 65.928 83.4509 65.488 83.0029 65.28C82.5549 65.056 81.9549 64.944 81.2029 64.944H78.3229V71.016C78.3229 71.384 78.2269 71.672 78.0349 71.88C77.8589 72.072 77.5789 72.168 77.1949 72.168ZM78.3229 63.216H82.5709C83.8509 63.216 84.8109 62.952 85.4509 62.424C86.0909 61.88 86.4109 61.088 86.4109 60.048C86.4109 59.008 86.0909 58.224 85.4509 57.696C84.8109 57.168 83.8509 56.904 82.5709 56.904H78.3229V63.216ZM97.3994 72C97.0154 72 96.7194 71.896 96.5114 71.688C96.3034 71.48 96.1994 71.184 96.1994 70.8V56.28C96.1994 55.896 96.3034 55.6 96.5114 55.392C96.7194 55.184 97.0154 55.08 97.3994 55.08H106.231C106.535 55.08 106.767 55.16 106.927 55.32C107.103 55.464 107.191 55.68 107.191 55.968C107.191 56.272 107.103 56.504 106.927 56.664C106.767 56.824 106.535 56.904 106.231 56.904H98.3594V62.496H105.727C106.031 62.496 106.263 62.576 106.423 62.736C106.583 62.896 106.663 63.12 106.663 63.408C106.663 63.712 106.583 63.944 106.423 64.104C106.263 64.248 106.031 64.32 105.727 64.32H98.3594V70.176H106.231C106.535 70.176 106.767 70.256 106.927 70.416C107.103 70.56 107.191 70.784 107.191 71.088C107.191 71.392 107.103 71.624 106.927 71.784C106.767 71.928 106.535 72 106.231 72H97.3994ZM119.532 72.216C118.78 72.216 118.052 72.152 117.348 72.024C116.644 71.912 115.98 71.736 115.356 71.496C114.732 71.256 114.172 70.96 113.676 70.608C113.468 70.464 113.316 70.288 113.22 70.08C113.14 69.872 113.116 69.672 113.148 69.48C113.196 69.272 113.284 69.096 113.412 68.952C113.556 68.808 113.724 68.72 113.916 68.688C114.108 68.656 114.316 68.72 114.54 68.88C115.276 69.376 116.044 69.736 116.844 69.96C117.66 70.184 118.556 70.296 119.532 70.296C120.94 70.296 121.972 70.04 122.628 69.528C123.3 69.016 123.636 68.344 123.636 67.512C123.636 66.824 123.396 66.288 122.916 65.904C122.436 65.504 121.628 65.192 120.492 64.968L117.948 64.44C116.444 64.12 115.316 63.592 114.564 62.856C113.828 62.12 113.46 61.136 113.46 59.904C113.46 59.152 113.612 58.472 113.916 57.864C114.22 57.24 114.652 56.704 115.212 56.256C115.772 55.808 116.428 55.464 117.18 55.224C117.948 54.984 118.796 54.864 119.724 54.864C120.716 54.864 121.644 55 122.508 55.272C123.388 55.544 124.18 55.944 124.884 56.472C125.076 56.616 125.204 56.792 125.268 57C125.332 57.192 125.34 57.384 125.292 57.576C125.26 57.768 125.172 57.928 125.028 58.056C124.9 58.184 124.732 58.256 124.524 58.272C124.332 58.288 124.116 58.216 123.876 58.056C123.236 57.608 122.58 57.288 121.908 57.096C121.236 56.888 120.5 56.784 119.7 56.784C118.884 56.784 118.172 56.912 117.564 57.168C116.972 57.424 116.508 57.784 116.172 58.248C115.852 58.696 115.692 59.224 115.692 59.832C115.692 60.568 115.916 61.144 116.364 61.56C116.812 61.976 117.564 62.296 118.62 62.52L121.14 63.024C122.74 63.36 123.924 63.88 124.692 64.584C125.476 65.272 125.868 66.2 125.868 67.368C125.868 68.104 125.716 68.768 125.412 69.36C125.124 69.952 124.708 70.464 124.164 70.896C123.62 71.312 122.956 71.64 122.172 71.88C121.388 72.104 120.508 72.216 119.532 72.216ZM144.201 72C143.817 72 143.521 71.896 143.313 71.688C143.105 71.48 143.001 71.184 143.001 70.8V56.28C143.001 55.896 143.105 55.6 143.313 55.392C143.521 55.184 143.817 55.08 144.201 55.08H148.833C151.601 55.08 153.729 55.808 155.217 57.264C156.721 58.704 157.473 60.792 157.473 63.528C157.473 64.888 157.281 66.096 156.897 67.152C156.513 68.208 155.953 69.096 155.217 69.816C154.481 70.52 153.577 71.064 152.505 71.448C151.449 71.816 150.225 72 148.833 72H144.201ZM145.233 70.104H148.689C149.777 70.104 150.721 69.968 151.521 69.696C152.321 69.424 152.985 69.016 153.513 68.472C154.057 67.928 154.465 67.248 154.737 66.432C155.009 65.6 155.145 64.632 155.145 63.528C155.145 61.336 154.601 59.696 153.513 58.608C152.441 57.52 150.833 56.976 148.689 56.976H145.233V70.104ZM165.995 72.168C165.643 72.168 165.371 72.072 165.179 71.88C164.987 71.672 164.891 71.384 164.891 71.016V56.064C164.891 55.68 164.987 55.392 165.179 55.2C165.371 55.008 165.643 54.912 165.995 54.912C166.363 54.912 166.643 55.008 166.835 55.2C167.027 55.392 167.123 55.68 167.123 56.064V71.016C167.123 71.384 167.027 71.672 166.835 71.88C166.659 72.072 166.379 72.168 165.995 72.168ZM176.332 72C175.948 72 175.652 71.896 175.444 71.688C175.236 71.48 175.132 71.184 175.132 70.8V56.28C175.132 55.896 175.236 55.6 175.444 55.392C175.652 55.184 175.948 55.08 176.332 55.08H182.02C183.188 55.08 184.18 55.256 184.996 55.608C185.828 55.96 186.46 56.464 186.892 57.12C187.324 57.776 187.54 58.568 187.54 59.496C187.54 60.536 187.236 61.408 186.628 62.112C186.02 62.816 185.188 63.288 184.132 63.528V63.168C185.316 63.312 186.244 63.752 186.916 64.488C187.604 65.208 187.948 66.152 187.948 67.32C187.948 68.824 187.452 69.984 186.46 70.8C185.484 71.6 184.1 72 182.308 72H176.332ZM177.292 70.248H182.068C183.316 70.248 184.244 70.008 184.852 69.528C185.46 69.032 185.764 68.28 185.764 67.272C185.764 66.264 185.46 65.52 184.852 65.04C184.244 64.56 183.316 64.32 182.068 64.32H177.292V70.248ZM177.292 62.544H181.684C182.9 62.544 183.812 62.304 184.42 61.824C185.044 61.328 185.356 60.616 185.356 59.688C185.356 58.76 185.044 58.056 184.42 57.576C183.812 57.08 182.9 56.832 181.684 56.832H177.292V62.544Z" fill="#090106"/>
<g clip-path="url(#clip0_422_6)">
<path d="M99.8205 12.4856C98.4687 11.7287 96.8703 11.5218 95.4759 12.2688C94.5584 12.7115 93.6406 13.6373 93.0762 14.7272C92.8202 14.9206 92.5812 15.1398 92.3621 15.3818C91.1332 17.0869 91.0195 19.3089 92.5272 20.8598C93.8157 22.2372 95.7853 22.3719 97.4608 21.9656C98.2893 21.6982 99.0558 21.2381 99.708 20.6165C100.36 19.9949 100.883 19.2263 101.241 18.363C102.096 16.393 101.813 13.4611 99.8205 12.4856ZM97.6484 14.3438C97.7998 14.3772 97.9495 14.421 98.098 14.4668C98.8941 14.7835 98.4427 14.5293 99.0775 14.9565C99.1018 14.982 99.1236 15.01 99.1465 15.0371C99.176 15.0894 99.2127 15.1574 99.2491 15.2352L99.25 15.2375C99.2775 15.322 99.3028 15.4074 99.3233 15.4942C99.3819 15.7098 99.4032 15.9355 99.3861 16.1598C99.3636 15.9408 99.3099 15.7271 99.2269 15.5265C98.6998 14.5446 97.5279 14.844 96.7071 15.1242C96.56 15.1764 96.4152 15.2364 96.2718 15.3C96.485 15.2675 96.6999 15.2503 96.9151 15.2485C97.4872 15.2649 98.3158 15.1926 98.5736 15.8124C98.6028 16.0397 98.575 16.2715 98.493 16.4826C98.411 16.6937 98.278 16.8762 98.1084 17.0103C97.4797 17.545 96.4627 17.9281 95.8444 17.9102C95.1821 17.89 94.8178 17.7103 94.5909 17.2633C94.5818 17.2282 94.5715 17.1862 94.5621 17.1419C94.5599 17.0909 94.558 17.0199 94.5605 16.9455C94.5715 16.8802 94.5803 16.8145 94.5965 16.7505C94.8424 15.8669 95.8421 14.7305 96.6607 14.4585C96.5684 14.5012 96.4762 14.544 96.384 14.5867C97.3438 14.2673 96.9123 14.3509 97.6484 14.3438ZM96.3396 19.8123C95.1571 19.9972 94.5722 20.0983 93.6287 19.4927C92.9692 19.0251 92.566 18.4627 92.5879 17.5127C92.638 17.7602 92.7175 17.9995 92.8242 18.2243C93.6353 19.7858 95.573 20.0749 96.9676 19.3474C97.6302 19.0474 98.3764 18.5215 98.8647 17.8521C98.5869 18.3499 98.2198 18.7804 97.7857 19.1174C97.3516 19.4544 96.8596 19.6908 96.3396 19.8123Z" fill="#090106"/>
<path d="M108.726 19.9545C108.724 19.9358 108.718 19.9177 108.71 19.9014C108.701 19.885 108.69 19.8707 108.676 19.8593C108.662 19.8479 108.647 19.8396 108.63 19.8349C108.613 19.8302 108.596 19.8292 108.579 19.832C108.273 20.0296 107.998 20.4373 107.683 20.6669C107.104 21.1133 106.489 21.5 105.845 21.822C104.545 22.4321 102.004 23.1372 100.237 23.8124C97.1305 25.1446 93.9081 26.0819 90.7105 27.1064C87.1719 28.2983 83.9004 29.3693 80.324 29.077C84.0169 30.3308 87.9617 29.966 91.6998 29.1497C94.7039 28.5733 97.6719 27.6905 100.393 26.1511C102.812 24.7878 105.524 23.8413 107.513 21.727C107.963 21.2509 108.35 20.7083 108.664 20.115L108.665 20.1128C108.668 20.1084 108.672 20.1044 108.675 20.0999C108.693 20.0814 108.707 20.0587 108.716 20.0335C108.724 20.0083 108.728 19.9813 108.726 19.9545Z" fill="#090106"/>
<path d="M115.746 14.4382C114.902 12.3021 112.383 12.2165 110.581 12.6229C110.292 12.686 110.003 12.7565 109.717 12.8346C107.95 9.80974 105.295 7.53819 102.341 6.04305C100.309 4.94781 98.0533 4.45628 95.8094 4.26257C93.8899 4.11405 91.9107 4.24208 90.0923 4.97765C89.041 5.382 88.0033 5.86009 87.1023 6.59084C86.8511 6.78348 86.6032 6.98153 86.3639 7.19154C86.9458 6.83194 87.546 6.50952 88.1617 6.22589C89.1618 5.84815 90.6709 5.42975 91.5913 5.3383C93.8346 5.16088 95.3728 5.42022 97.4225 5.90634C103.341 7.31652 108.067 11.3498 109.976 17.0867C110.435 18.4683 110.565 19.9552 110.356 21.4076C109.883 21.7124 109.378 22.0161 108.821 22.3397C106.118 23.9075 103.943 24.8824 100.914 25.9902C98.945 26.6693 96.9768 27.36 94.9787 27.9293C92.9485 28.4594 90.8856 28.8204 88.8424 29.284C85.7579 29.8798 83.1919 30.7739 80.3558 30.6999C79.6094 29.2289 79.1844 28.2092 78.7441 26.431C77.7097 22.3315 77.7274 17.962 79.6699 14.3791C80.9778 12.0476 82.7381 10.062 84.8252 8.5641C86.0237 7.68321 87.2569 7.29642 88.6441 6.8921C87.4457 7.04702 86.2316 7.21886 85.1166 7.75532C82.3918 9.08569 80.0778 11.2573 78.456 14.006C76.7315 17.1069 76.4729 20.8733 77.0039 24.409C75.1185 25.3541 73.582 27.4294 75.1862 29.5713C76.2833 30.8732 77.811 31.5395 79.3812 31.8595C79.5238 32.1336 79.6716 32.4042 79.8246 32.6714C80.6742 34.0514 81.8512 35.1508 83.1269 36.0347C84.2791 36.7961 85.4741 37.5219 86.778 37.9154C89.377 38.6717 92.1303 38.4239 94.7411 37.8627C97.0371 37.2159 99.2185 36.1263 101.268 34.8293C103.388 33.5343 105.349 31.9478 107.103 30.1081C109.176 27.9238 111.175 25.3046 111.773 22.1618C112.211 21.8509 112.631 21.5111 113.03 21.1441C114.139 20.0886 115.256 18.9027 115.755 17.351C116.085 16.4131 116.081 15.3736 115.746 14.4382ZM77.2101 27.3416C77.0802 26.6765 75.1367 26.5909 75.4902 26.0496C75.8479 25.4152 76.4116 24.9015 77.0127 24.4634C77.0874 24.953 77.1764 25.4373 77.2796 25.9164C77.6006 27.4925 78.0852 29.0229 78.7239 30.4775C77.2268 30.1598 77.5705 28.9381 77.2101 27.3416ZM107.667 27.0831C105.435 29.7627 103.503 31.5217 100.837 33.2015C98.9731 34.3718 97.8289 35.0303 96.0086 35.7261C93.9797 36.5262 92.8142 36.6241 90.6957 36.7548C88.0872 36.8176 86.5441 36.3866 84.3411 34.9822C82.929 34.0745 81.9493 33.2636 81.1368 32.0707C82.6737 32.1013 84.1999 31.805 85.7045 31.485C88.8562 30.7652 92.0365 30.1977 95.1816 29.4465C96.9872 28.9483 98.7579 28.3084 100.535 27.7032C103.372 26.7311 106.129 25.5006 108.779 24.0244C109.128 23.8207 109.478 23.6182 109.827 23.4122C109.339 24.6973 108.592 25.9151 107.667 27.0831ZM112.263 16.1842C111.645 16.9015 112.601 19.7261 111.969 20.244C112.006 17.6704 111.098 15.1782 109.834 13.0321C109.822 13.0119 109.81 12.9926 109.798 12.9725C110.714 12.8704 111.672 12.8393 112.45 12.9802C115.863 13.5314 113.86 14.4263 112.263 16.1842Z" fill="black"/>
<path d="M104.813 16.1116C104.48 15.4671 103.827 15.1329 103.229 14.8548C102.358 14.4846 101.405 14.4182 100.498 14.6647C100.059 14.7543 100.837 14.6608 101.002 14.6816C101.92 14.6952 102.811 15.0236 103.551 15.621C103.808 15.8115 104.3 16.2595 104.304 16.7517C104.313 17.538 103.992 18.1845 103.53 18.8619C103.104 19.4767 102.601 20.0224 102.036 20.4828C101.893 20.5865 101.399 20.9434 101.25 20.9913C101.199 21.0136 101.168 21.0285 101.153 21.0365C101.134 21.0448 101.116 21.0536 101.097 21.0615C100.51 21.2755 99.9009 21.4106 99.2841 21.4635C98.055 21.542 97.7564 21.4257 96.8093 20.8755C94.8614 19.8496 96.4804 17.3341 97.812 15.9422C98.5955 15.06 99.5925 14.577 100.653 14C99.6169 14.3771 98.5366 14.6972 97.6603 15.4451C96.0818 16.6623 93.9518 19.2212 95.5894 21.2899C96.7403 22.5619 98.4057 23.0363 99.9924 22.6886C101.893 22.502 103.463 21.0527 104.401 19.293C104.907 18.3725 105.294 17.131 104.813 16.1116Z" fill="black"/>
<path d="M89.9383 22.7302C89.6447 22.4861 89.3089 22.3102 88.9515 22.2131C88.594 22.1161 88.2223 22.1 87.8589 22.1657C87.5004 22.2423 87.1511 22.3639 86.8179 22.528C86.8848 22.4925 86.9516 22.4573 87.0183 22.4223C86.3466 22.6229 85.6552 22.8473 85.1035 23.333C84.2099 24.1046 83.6139 25.5159 84.1861 26.7015C84.4388 27.2633 84.9267 27.5947 85.4546 27.7819C86.9632 28.3754 88.744 27.5653 89.735 26.2586C90.5734 25.2439 90.8892 23.7949 89.9383 22.7302ZM89.6949 24.2526C89.6285 24.8154 88.1869 22.8682 87.6146 23.3957C87.2899 23.6615 86.9641 23.7144 86.7475 23.8039C86.2116 24.0245 86.3859 23.9772 85.8805 23.9399C85.6414 23.9172 85.3827 26.7559 85.128 26.5919C84.3737 25.9954 84.4914 24.7931 85.1372 23.8478C85.4337 23.4426 85.8027 23.1087 86.2215 22.8666C86.2949 22.8455 86.3681 22.8237 86.4416 22.8034C87.2276 22.59 88.0864 22.3888 88.8487 22.7987C88.9306 22.8257 89.3744 23.1055 89.4437 23.2219C89.6442 23.5893 89.7336 23.8364 89.6949 24.2526Z" fill="black"/>
<path d="M95.3326 31.7051C95.1208 31.6131 94.9008 31.5458 94.6763 31.5041C94.7978 31.5624 94.9171 31.6257 95.0358 31.6909C95.8778 32.1084 95.5612 32.3066 95.0607 32.8038C94.4991 33.3158 94.0994 33.7736 93.3152 34.0038C92.782 34.1597 92.0949 34.002 91.7986 33.4502C91.6613 33.1508 91.7546 32.7429 91.8951 32.4302C92.0703 32.1227 92.2694 32.3822 92.5459 32.2077C93.0543 31.9312 93.4642 31.7746 94.0164 31.5076C93.1932 31.7226 92.2879 31.8013 91.5764 32.3443C91.2249 32.6558 91.0502 33.1873 91.0423 33.6734C91.095 34.8525 92.3951 35.4397 93.3264 35.1156C94.19 34.9907 96.8127 32.4135 95.3326 31.7051Z" fill="black"/>
<path d="M109.002 4.03787C107.907 4.0677 107.909 5.83068 109.002 5.86377C110.098 5.83394 110.095 4.07097 109.002 4.03787Z" fill="black"/>
<path d="M90.3406 0C89.2451 0.0298254 89.248 1.79279 90.3406 1.82589C91.4361 1.79606 91.4332 0.0330855 90.3406 0Z" fill="black"/>
<path d="M74.0825 10.5606C72.9871 10.5904 72.9899 12.3534 74.0825 12.3865C75.178 12.3566 75.1752 10.5937 74.0825 10.5606Z" fill="black"/>
<path d="M87.089 43.1741C85.9936 43.2039 85.9964 44.9669 87.089 45C88.1845 44.9702 88.1816 43.2072 87.089 43.1741Z" fill="black"/>
<path d="M109.002 36.962C107.907 36.9918 107.909 38.7548 109.002 38.7879C110.098 38.7581 110.095 36.9951 109.002 36.962Z" fill="black"/>
<path d="M101.085 16.928C99.9896 16.9578 99.9925 18.7208 101.085 18.7539C102.181 18.724 102.178 16.9611 101.085 16.928Z" fill="black"/>
<path d="M80.8685 17.7045C79.773 17.7343 79.7759 19.4973 80.8685 19.5304C81.964 19.5005 81.9611 17.7376 80.8685 17.7045Z" fill="black"/>
<path d="M71.8205 39.7574C70.7251 39.7873 70.7279 41.5503 71.8205 41.5833C72.916 41.5535 72.9132 39.7905 71.8205 39.7574Z" fill="black"/>
</g>
<defs>
<clipPath id="clip0_422_6">
<rect width="45" height="45" fill="white" transform="translate(71)"/>
</clipPath>
</defs>
</svg>
